<?xml version="1.0" encoding="UTF-8" standalone="no"?>
<!DOCTYPE svg PUBLIC "-//W3C//DTD SVG 1.1//EN"
 "http://www.w3.org/Graphics/SVG/1.1/DTD/svg11.dtd">
<!-- Generated by graphviz version 2.43.0 (0)
 -->
<!-- Title: %3 Pages: 1 -->
<svg width="194pt" height="164pt"
 viewBox="0.00 0.00 194.49 164.49" xmlns="http://www.w3.org/2000/svg" xmlns:xlink="http://www.w3.org/1999/xlink">
<g id="graph0" class="graph" transform="scale(1 1) rotate(0) translate(4 160.49)">
<title>%3</title>
<polygon fill="white" stroke="transparent" points="-4,4 -4,-160.49 190.49,-160.49 190.49,4 -4,4"/>
<!-- 1395080543048854806 -->
<g id="node1" class="node">
<title>1395080543048854806</title>
<ellipse fill="none" stroke="black" cx="42.25" cy="-42.25" rx="42.49" ry="42.49"/>
<text text-anchor="middle" x="42.25" y="-38.55" font-family="Helvetica,sans-Serif" font-size="14.00">arange</text>
</g>
<!-- &#45;8259339734475637316 -->
<g id="node2" class="node">
<title>&#45;8259339734475637316</title>
<polygon fill="none" stroke="black" points="69.25,-156.49 15.25,-156.49 15.25,-120.49 69.25,-120.49 69.25,-156.49"/>
<text text-anchor="middle" x="42.25" y="-134.79" font-family="Helvetica,sans-Serif" font-size="14.00">0</text>
</g>
<!-- 1395080543048854806&#45;&gt;&#45;8259339734475637316 -->
<g id="edge1" class="edge">
<title>1395080543048854806&#45;&gt;&#45;8259339734475637316</title>
<path fill="none" stroke="black" d="M42.25,-84.58C42.25,-93.15 42.25,-101.98 42.25,-109.91"/>
<polygon fill="black" stroke="black" points="38.75,-110.06 42.25,-120.06 45.75,-110.06 38.75,-110.06"/>
</g>
<!-- &#45;4434097254763492803 -->
<g id="node3" class="node">
<title>&#45;4434097254763492803</title>
<ellipse fill="none" stroke="black" cx="144.25" cy="-42.25" rx="42.49" ry="42.49"/>
<text text-anchor="middle" x="144.25" y="-38.55" font-family="Helvetica,sans-Serif" font-size="14.00">arange</text>
</g>
<!-- 5294330310261217934 -->
<g id="node4" class="node">
<title>5294330310261217934</title>
<polygon fill="none" stroke="black" points="171.25,-156.49 117.25,-156.49 117.25,-120.49 171.25,-120.49 171.25,-156.49"/>
<text text-anchor="middle" x="144.25" y="-134.79" font-family="Helvetica,sans-Serif" font-size="14.00">1</text>
</g>
<!-- &#45;4434097254763492803&#45;&gt;5294330310261217934 -->
<g id="edge2" class="edge">
<title>&#45;4434097254763492803&#45;&gt;5294330310261217934</title>
<path fill="none" stroke="black" d="M144.25,-84.58C144.25,-93.15 144.25,-101.98 144.25,-109.91"/>
<polygon fill="black" stroke="black" points="140.75,-110.06 144.25,-120.06 147.75,-110.06 140.75,-110.06"/>
</g>
</g>
</svg>
